<svg xmlns="http://www.w3.org/2000/svg" width="1280" height="900" viewBox="0 0 1280 900">
  <defs>
    <linearGradient id="bg" x1="0" y1="0" x2="1" y2="1"><stop offset="0" stop-color="#d946ef"/><stop offset="1" stop-color="#06b6d4"/></linearGradient>
    <radialGradient id="glow" cx="70%" cy="20%" r="65%"><stop offset="0" stop-color="white" stop-opacity=".35"/><stop offset="1" stop-color="white" stop-opacity="0"/></radialGradient>
    <filter id="blur"><feGaussianBlur stdDeviation="38"/></filter>
  </defs>
  <rect width="1280" height="900" fill="#09090b"/>
  <rect width="1280" height="900" fill="url(#bg)" opacity=".82"/>
  <rect width="1280" height="900" fill="url(#glow)"/>
  <circle cx="1120" cy="120" r="230" fill="white" opacity=".12" filter="url(#blur)"/>
  <circle cx="80" cy="830" r="270" fill="black" opacity=".18" filter="url(#blur)"/>
  <rect x="54" y="54" width="1172" height="792" rx="54" fill="rgba(9,9,11,.44)" stroke="rgba(255,255,255,.16)"/>
  <text x="92" y="145" font-size="28" fill="#d4d4d8" font-family="Inter, Arial, sans-serif" letter-spacing="6">PORTFOLIO EXAMPLE</text>
  <text x="92" y="225" font-size="74" fill="white" font-weight="800" font-family="Inter, Arial, sans-serif">AUTO PITCH</text>
  <text x="96" y="282" font-size="30" fill="#e4e4e7" font-family="Inter, Arial, sans-serif">Vocal tuning plugin concept</text>
  
        <g transform="translate(92 355)" stroke="white" stroke-opacity=".82" fill="none" stroke-linecap="round">
          <path d="M0 80 C 55 5, 110 5, 165 80 S 275 155, 330 80 S 440 5, 495 80 S 605 155, 660 80" stroke-width="10"/>
          <path d="M0 145 C 75 95, 125 95, 200 145 S 350 195, 425 145 S 575 95, 660 145" stroke-width="5" opacity=".55"/>
          <line x1="20" y1="250" x2="640" y2="250" stroke-width="2" opacity=".3"/>
          <circle cx="170" cy="250" r="16" fill="white" opacity=".9"/>
          <circle cx="410" cy="250" r="16" fill="white" opacity=".65"/>
        </g>
  <rect x="92" y="700" width="152" height="48" rx="24" fill="rgba(255,255,255,.10)" stroke="rgba(255,255,255,.18)"/>
<text x="114" y="731" font-size="20" fill="#e5e7eb" font-family="Inter, Arial, sans-serif">Pitch</text>
<rect x="262" y="700" width="196" height="48" rx="24" fill="rgba(255,255,255,.10)" stroke="rgba(255,255,255,.18)"/>
<text x="284" y="731" font-size="20" fill="#e5e7eb" font-family="Inter, Arial, sans-serif">Formant</text>
<rect x="476" y="700" width="218" height="48" rx="24" fill="rgba(255,255,255,.10)" stroke="rgba(255,255,255,.18)"/>
<text x="498" y="731" font-size="20" fill="#e5e7eb" font-family="Inter, Arial, sans-serif">Humanize</text>
<rect x="712" y="700" width="108" height="48" rx="24" fill="rgba(255,255,255,.10)" stroke="rgba(255,255,255,.18)"/>
<text x="734" y="731" font-size="20" fill="#e5e7eb" font-family="Inter, Arial, sans-serif">Mix</text>

</svg>