<svg xmlns="http://www.w3.org/2000/svg" width="1280" height="900" viewBox="0 0 1280 900">
  <defs>
    <linearGradient id="bg" x1="0" y1="0" x2="1" y2="1"><stop offset="0" stop-color="#ec4899"/><stop offset="1" stop-color="#facc15"/></linearGradient>
    <radialGradient id="glow" cx="70%" cy="20%" r="65%"><stop offset="0" stop-color="white" stop-opacity=".35"/><stop offset="1" stop-color="white" stop-opacity="0"/></radialGradient>
    <filter id="blur"><feGaussianBlur stdDeviation="38"/></filter>
  </defs>
  <rect width="1280" height="900" fill="#09090b"/>
  <rect width="1280" height="900" fill="url(#bg)" opacity=".82"/>
  <rect width="1280" height="900" fill="url(#glow)"/>
  <circle cx="1120" cy="120" r="230" fill="white" opacity=".12" filter="url(#blur)"/>
  <circle cx="80" cy="830" r="270" fill="black" opacity=".18" filter="url(#blur)"/>
  <rect x="54" y="54" width="1172" height="792" rx="54" fill="rgba(9,9,11,.44)" stroke="rgba(255,255,255,.16)"/>
  <text x="92" y="145" font-size="28" fill="#d4d4d8" font-family="Inter, Arial, sans-serif" letter-spacing="6">PORTFOLIO EXAMPLE</text>
  <text x="92" y="225" font-size="74" fill="white" font-weight="800" font-family="Inter, Arial, sans-serif">CONTEXT COMPOSITOR</text>
  <text x="96" y="282" font-size="30" fill="#e4e4e7" font-family="Inter, Arial, sans-serif">Subject-aware video compositing tool</text>
  
        <g transform="translate(95 325)">
          <rect x="0" y="0" width="760" height="350" rx="34" fill="rgba(0,0,0,.25)" stroke="rgba(255,255,255,.20)"/>
          <rect x="45" y="45" width="300" height="220" rx="28" fill="rgba(255,255,255,.12)"/>
          <path d="M118 245 C 170 105, 245 105, 298 245 Z" fill="rgba(255,255,255,.35)"/>
          <rect x="410" y="58" width="280" height="28" rx="14" fill="white" opacity=".60"/>
          <rect x="410" y="122" width="230" height="18" rx="9" fill="white" opacity=".30"/>
          <rect x="410" y="170" width="260" height="18" rx="9" fill="white" opacity=".30"/>
          <rect x="410" y="218" width="180" height="18" rx="9" fill="white" opacity=".30"/>
          <path d="M50 305 H715" stroke="white" opacity=".25" stroke-width="5" stroke-linecap="round"/>
          <circle cx="290" cy="305" r="15" fill="white" opacity=".8"/>
        </g>
  <rect x="92" y="700" width="130" height="48" rx="24" fill="rgba(255,255,255,.10)" stroke="rgba(255,255,255,.18)"/>
<text x="114" y="731" font-size="20" fill="#e5e7eb" font-family="Inter, Arial, sans-serif">Mask</text>
<rect x="240" y="700" width="152" height="48" rx="24" fill="rgba(255,255,255,.10)" stroke="rgba(255,255,255,.18)"/>
<text x="262" y="731" font-size="20" fill="#e5e7eb" font-family="Inter, Arial, sans-serif">Track</text>
<rect x="410" y="700" width="152" height="48" rx="24" fill="rgba(255,255,255,.10)" stroke="rgba(255,255,255,.18)"/>
<text x="432" y="731" font-size="20" fill="#e5e7eb" font-family="Inter, Arial, sans-serif">Blend</text>
<rect x="580" y="700" width="174" height="48" rx="24" fill="rgba(255,255,255,.10)" stroke="rgba(255,255,255,.18)"/>
<text x="602" y="731" font-size="20" fill="#e5e7eb" font-family="Inter, Arial, sans-serif">Export</text>

</svg>