<svg xmlns="http://www.w3.org/2000/svg" width="1280" height="900" viewBox="0 0 1280 900">
  <defs>
    <linearGradient id="bg" x1="0" y1="0" x2="1" y2="1"><stop offset="0" stop-color="#38bdf8"/><stop offset="1" stop-color="#8b5cf6"/></linearGradient>
    <radialGradient id="glow" cx="70%" cy="20%" r="65%"><stop offset="0" stop-color="white" stop-opacity=".35"/><stop offset="1" stop-color="white" stop-opacity="0"/></radialGradient>
    <filter id="blur"><feGaussianBlur stdDeviation="38"/></filter>
  </defs>
  <rect width="1280" height="900" fill="#09090b"/>
  <rect width="1280" height="900" fill="url(#bg)" opacity=".82"/>
  <rect width="1280" height="900" fill="url(#glow)"/>
  <circle cx="1120" cy="120" r="230" fill="white" opacity=".12" filter="url(#blur)"/>
  <circle cx="80" cy="830" r="270" fill="black" opacity=".18" filter="url(#blur)"/>
  <rect x="54" y="54" width="1172" height="792" rx="54" fill="rgba(9,9,11,.44)" stroke="rgba(255,255,255,.16)"/>
  <text x="92" y="145" font-size="28" fill="#d4d4d8" font-family="Inter, Arial, sans-serif" letter-spacing="6">PORTFOLIO EXAMPLE</text>
  <text x="92" y="225" font-size="74" fill="white" font-weight="800" font-family="Inter, Arial, sans-serif">DIGITAL HUMAN</text>
  <text x="96" y="282" font-size="30" fill="#e4e4e7" font-family="Inter, Arial, sans-serif">Avatar + realtime voice interface</text>
  
        <g transform="translate(112 310)">
          <circle cx="210" cy="145" r="112" fill="rgba(255,255,255,.14)" stroke="rgba(255,255,255,.42)" stroke-width="3"/>
          <circle cx="170" cy="128" r="13" fill="white" opacity=".86"/>
          <circle cx="250" cy="128" r="13" fill="white" opacity=".86"/>
          <path d="M160 190 C185 222,235 222,260 190" stroke="white" stroke-width="8" fill="none" stroke-linecap="round" opacity=".8"/>
          <rect x="425" y="45" width="345" height="215" rx="34" fill="rgba(255,255,255,.10)" stroke="rgba(255,255,255,.24)"/>
          <rect x="455" y="85" width="230" height="18" rx="9" fill="white" opacity=".65"/>
          <rect x="455" y="125" width="285" height="18" rx="9" fill="white" opacity=".35"/>
          <rect x="455" y="165" width="190" height="18" rx="9" fill="white" opacity=".35"/>
        </g>
  <rect x="92" y="700" width="196" height="48" rx="24" fill="rgba(255,255,255,.10)" stroke="rgba(255,255,255,.18)"/>
<text x="114" y="731" font-size="20" fill="#e5e7eb" font-family="Inter, Arial, sans-serif">Persona</text>
<rect x="306" y="700" width="152" height="48" rx="24" fill="rgba(255,255,255,.10)" stroke="rgba(255,255,255,.18)"/>
<text x="328" y="731" font-size="20" fill="#e5e7eb" font-family="Inter, Arial, sans-serif">Voice</text>
<rect x="476" y="700" width="218" height="48" rx="24" fill="rgba(255,255,255,.10)" stroke="rgba(255,255,255,.18)"/>
<text x="498" y="731" font-size="20" fill="#e5e7eb" font-family="Inter, Arial, sans-serif">Realtime</text>
<rect x="712" y="700" width="174" height="48" rx="24" fill="rgba(255,255,255,.10)" stroke="rgba(255,255,255,.18)"/>
<text x="734" y="731" font-size="20" fill="#e5e7eb" font-family="Inter, Arial, sans-serif">Render</text>

</svg>