<svg xmlns="http://www.w3.org/2000/svg" width="1280" height="900" viewBox="0 0 1280 900">
  <defs>
    <linearGradient id="bg" x1="0" y1="0" x2="1" y2="1"><stop offset="0" stop-color="#052e16"/><stop offset="1" stop-color="#020617"/></linearGradient>
    <radialGradient id="glow" cx="72%" cy="22%" r="70%"><stop offset="0" stop-color="#84cc16" stop-opacity=".45"/><stop offset="1" stop-color="#84cc16" stop-opacity="0"/></radialGradient>
    <filter id="blur"><feGaussianBlur stdDeviation="40"/></filter>
    <radialGradient id="haz" cx="50%" cy="50%" r="50%"><stop offset="0" stop-color="#bef264" stop-opacity=".9"/><stop offset="1" stop-color="#65a30d" stop-opacity=".6"/></radialGradient>
  </defs>
  <rect width="1280" height="900" fill="#020617"/>
  <rect width="1280" height="900" fill="url(#bg)" opacity=".92"/>
  <rect width="1280" height="900" fill="url(#glow)"/>
  <circle cx="1110" cy="140" r="240" fill="#84cc16" opacity=".14" filter="url(#blur)"/>
  <circle cx="90" cy="820" r="280" fill="#000000" opacity=".22" filter="url(#blur)"/>
  <rect x="54" y="54" width="1172" height="792" rx="54" fill="rgba(2,6,23,.5)" stroke="rgba(132,204,22,.28)"/>
  <text x="92" y="145" font-size="28" fill="#a3e635" font-family="Inter, Arial, sans-serif" letter-spacing="7">SATTARI AUDIO · VST3 / AU / STANDALONE</text>
  <text x="92" y="232" font-size="92" fill="#f7fee7" font-weight="800" font-family="Inter, Arial, sans-serif" letter-spacing="2">ENTROPY</text>
  <text x="96" y="292" font-size="30" fill="#d9f99d" font-family="Inter, Arial, sans-serif">Real-time granular chaos engine · JUCE 8 · spectral freeze</text>
  <!-- biohazard watermark -->
  <g transform="translate(980 600)" opacity=".5">
    <circle r="120" fill="none" stroke="#65a30d" stroke-width="3" opacity=".4"/>
    <g fill="url(#haz)">
      <circle cx="0" cy="-78" r="40"/><circle cx="-68" cy="40" r="40"/><circle cx="68" cy="40" r="40"/>
      <circle r="30" fill="#020617"/><circle r="18" fill="url(#haz)"/>
    </g>
  </g>
  <!-- grain cloud / oscilloscope -->
  <g transform="translate(92 380)" stroke="#a3e635" stroke-opacity=".85" fill="none" stroke-linecap="round">
    <path d="M0 90 C 50 10, 100 170, 150 90 S 250 10, 300 90 S 400 170, 450 90 S 550 10, 600 90 S 700 150, 760 90" stroke-width="6"/>
    <path d="M0 150 C 70 120, 120 180, 200 150 S 360 110, 440 150 S 600 190, 760 150" stroke-width="3" opacity=".5"/>
    <line x1="20" y1="250" x2="740" y2="250" stroke-width="2" opacity=".3"/>
  </g>
  <!-- grain dots -->
  <g fill="#bef264">
    <circle cx="180" cy="500" r="6" opacity=".9"/><circle cx="260" cy="540" r="4" opacity=".7"/><circle cx="330" cy="490" r="7" opacity=".85"/>
    <circle cx="410" cy="560" r="5" opacity=".6"/><circle cx="500" cy="510" r="6" opacity=".8"/><circle cx="600" cy="545" r="4" opacity=".7"/>
    <circle cx="690" cy="500" r="6" opacity=".85"/><circle cx="760" cy="555" r="5" opacity=".6"/>
  </g>
  <rect x="92" y="700" width="168" height="48" rx="24" fill="rgba(132,204,22,.12)" stroke="rgba(132,204,22,.3)"/>
  <text x="116" y="731" font-size="20" fill="#ecfccb" font-family="Inter, Arial, sans-serif">Freeze</text>
  <rect x="278" y="700" width="210" height="48" rx="24" fill="rgba(132,204,22,.12)" stroke="rgba(132,204,22,.3)"/>
  <text x="302" y="731" font-size="20" fill="#ecfccb" font-family="Inter, Arial, sans-serif">Spectral FFT</text>
  <rect x="506" y="700" width="160" height="48" rx="24" fill="rgba(132,204,22,.12)" stroke="rgba(132,204,22,.3)"/>
  <text x="530" y="731" font-size="20" fill="#ecfccb" font-family="Inter, Arial, sans-serif">Grains</text>
  <rect x="684" y="700" width="150" height="48" rx="24" fill="rgba(132,204,22,.12)" stroke="rgba(132,204,22,.3)"/>
  <text x="708" y="731" font-size="20" fill="#ecfccb" font-family="Inter, Arial, sans-serif">Scrub</text>
</svg>
