<svg xmlns="http://www.w3.org/2000/svg" width="1280" height="900" viewBox="0 0 1280 900">
  <defs>
    <linearGradient id="bg" x1="0" y1="0" x2="1" y2="1"><stop offset="0" stop-color="#a8a29e"/><stop offset="1" stop-color="#60a5fa"/></linearGradient>
    <radialGradient id="glow" cx="70%" cy="20%" r="65%"><stop offset="0" stop-color="white" stop-opacity=".35"/><stop offset="1" stop-color="white" stop-opacity="0"/></radialGradient>
    <filter id="blur"><feGaussianBlur stdDeviation="38"/></filter>
  </defs>
  <rect width="1280" height="900" fill="#09090b"/>
  <rect width="1280" height="900" fill="url(#bg)" opacity=".82"/>
  <rect width="1280" height="900" fill="url(#glow)"/>
  <circle cx="1120" cy="120" r="230" fill="white" opacity=".12" filter="url(#blur)"/>
  <circle cx="80" cy="830" r="270" fill="black" opacity=".18" filter="url(#blur)"/>
  <rect x="54" y="54" width="1172" height="792" rx="54" fill="rgba(9,9,11,.44)" stroke="rgba(255,255,255,.16)"/>
  <text x="92" y="145" font-size="28" fill="#d4d4d8" font-family="Inter, Arial, sans-serif" letter-spacing="6">PORTFOLIO EXAMPLE</text>
  <text x="92" y="225" font-size="74" fill="white" font-weight="800" font-family="Inter, Arial, sans-serif">LIBRARIAN</text>
  <text x="96" y="282" font-size="30" fill="#e4e4e7" font-family="Inter, Arial, sans-serif">Source-backed book discovery atlas</text>
  
        <g transform="translate(105 315)">
          <path d="M130 40 h250 c45 0 80 35 80 80 v270 c0-45-35-80-80-80H130z" fill="rgba(255,255,255,.14)" stroke="rgba(255,255,255,.36)" stroke-width="4"/>
          <path d="M460 120 c0-45 35-80 80-80h250v270H540c-45 0-80 35-80 80z" fill="rgba(255,255,255,.08)" stroke="rgba(255,255,255,.25)" stroke-width="4"/>
          <line x1="460" y1="120" x2="460" y2="390" stroke="white" opacity=".25" stroke-width="3"/>
          <rect x="175" y="105" width="190" height="18" rx="9" fill="white" opacity=".65"/>
          <rect x="175" y="155" width="225" height="16" rx="8" fill="white" opacity=".34"/>
          <rect x="175" y="195" width="165" height="16" rx="8" fill="white" opacity=".34"/>
          <rect x="560" y="105" width="175" height="18" rx="9" fill="white" opacity=".55"/>
          <rect x="560" y="155" width="205" height="16" rx="8" fill="white" opacity=".28"/>
          <rect x="560" y="195" width="150" height="16" rx="8" fill="white" opacity=".28"/>
        </g>
  <rect x="92" y="700" width="306" height="48" rx="24" fill="rgba(255,255,255,.10)" stroke="rgba(255,255,255,.18)"/>
<text x="114" y="731" font-size="20" fill="#e5e7eb" font-family="Inter, Arial, sans-serif">Open Library</text>
<rect x="416" y="700" width="218" height="48" rx="24" fill="rgba(255,255,255,.10)" stroke="rgba(255,255,255,.18)"/>
<text x="438" y="731" font-size="20" fill="#e5e7eb" font-family="Inter, Arial, sans-serif">Wikidata</text>
<rect x="652" y="700" width="328" height="48" rx="24" fill="rgba(255,255,255,.10)" stroke="rgba(255,255,255,.18)"/>
<text x="674" y="731" font-size="20" fill="#e5e7eb" font-family="Inter, Arial, sans-serif">Reading Paths</text>
<rect x="998" y="700" width="262" height="48" rx="24" fill="rgba(255,255,255,.10)" stroke="rgba(255,255,255,.18)"/>
<text x="1020" y="731" font-size="20" fill="#e5e7eb" font-family="Inter, Arial, sans-serif">Provenance</text>

</svg>