<svg xmlns="http://www.w3.org/2000/svg" width="1280" height="900" viewBox="0 0 1280 900">
  <defs>
    <linearGradient id="bg" x1="0" y1="0" x2="1" y2="1"><stop offset="0" stop-color="#f59e0b"/><stop offset="1" stop-color="#ef4444"/></linearGradient>
    <radialGradient id="glow" cx="70%" cy="20%" r="65%"><stop offset="0" stop-color="white" stop-opacity=".35"/><stop offset="1" stop-color="white" stop-opacity="0"/></radialGradient>
    <filter id="blur"><feGaussianBlur stdDeviation="38"/></filter>
  </defs>
  <rect width="1280" height="900" fill="#09090b"/>
  <rect width="1280" height="900" fill="url(#bg)" opacity=".82"/>
  <rect width="1280" height="900" fill="url(#glow)"/>
  <circle cx="1120" cy="120" r="230" fill="white" opacity=".12" filter="url(#blur)"/>
  <circle cx="80" cy="830" r="270" fill="black" opacity=".18" filter="url(#blur)"/>
  <rect x="54" y="54" width="1172" height="792" rx="54" fill="rgba(9,9,11,.44)" stroke="rgba(255,255,255,.16)"/>
  <text x="92" y="145" font-size="28" fill="#d4d4d8" font-family="Inter, Arial, sans-serif" letter-spacing="6">PORTFOLIO EXAMPLE</text>
  <text x="92" y="225" font-size="74" fill="white" font-weight="800" font-family="Inter, Arial, sans-serif">TRADER ORACLE</text>
  <text x="96" y="282" font-size="30" fill="#e4e4e7" font-family="Inter, Arial, sans-serif">Market radar and catalyst dashboard</text>
  
        <g transform="translate(95 330)">
          <rect x="0" y="0" width="720" height="310" rx="32" fill="rgba(0,0,0,.24)" stroke="rgba(255,255,255,.18)"/>
          <g stroke="white" stroke-opacity=".13"><line x1="50" y1="65" x2="680" y2="65"/><line x1="50" y1="130" x2="680" y2="130"/><line x1="50" y1="195" x2="680" y2="195"/><line x1="50" y1="260" x2="680" y2="260"/></g>
          <path d="M55 245 L135 210 L215 225 L295 145 L375 165 L455 88 L535 122 L625 55" fill="none" stroke="white" stroke-width="9" stroke-linecap="round" stroke-linejoin="round"/>
          <circle cx="625" cy="55" r="15" fill="white"/>
          <rect x="55" y="34" width="125" height="36" rx="18" fill="rgba(34,197,94,.35)"/>
          <text x="77" y="58" font-size="20" fill="white" font-family="Inter, Arial, sans-serif">+4.8%</text>
        </g>
  <rect x="92" y="700" width="240" height="48" rx="24" fill="rgba(255,255,255,.10)" stroke="rgba(255,255,255,.18)"/>
<text x="114" y="731" font-size="20" fill="#e5e7eb" font-family="Inter, Arial, sans-serif">Watchlist</text>
<rect x="350" y="700" width="240" height="48" rx="24" fill="rgba(255,255,255,.10)" stroke="rgba(255,255,255,.18)"/>
<text x="372" y="731" font-size="20" fill="#e5e7eb" font-family="Inter, Arial, sans-serif">Catalysts</text>
<rect x="608" y="700" width="240" height="48" rx="24" fill="rgba(255,255,255,.10)" stroke="rgba(255,255,255,.18)"/>
<text x="630" y="731" font-size="20" fill="#e5e7eb" font-family="Inter, Arial, sans-serif">Risk Plan</text>
<rect x="866" y="700" width="284" height="48" rx="24" fill="rgba(255,255,255,.10)" stroke="rgba(255,255,255,.18)"/>
<text x="888" y="731" font-size="20" fill="#e5e7eb" font-family="Inter, Arial, sans-serif">Oracle Chat</text>

</svg>